American Beauty *1999*[BluRay][1080p][ENG, POL]

General information:
Country: USA
Release: 8 September 1999
Genre: Drama 
Director: Sam Mendes
Screenplay: Alan Ball
Original Music: Thomas Newman
Cinematography by: Conrad L. Hall
Duration: 2h 1mn
Language: English, Polish
Subtitles: English, Polish
Rating: 7.7/10 
159737 votes

Cast:
Kevin Spacey ...Lester Burnham
Annette Bening ...Carolyn Burnham
Thora Birch ...Jane Burnham
Wes Bentley ...Ricky Fitts
Mena Suvari ...Angela Hayes
Chris Cooper ...Col. Frank Fitts, USMC
Peter Gallagher ...Buddy Kane
Allison Janney ...Barbara Fitts
Scott Bakula ...Jim Olmeyer
Sam Robards ...Jim Berkley
Barry Del Sherman ...Brad Dupree
Ara Celi ...Sale House Woman 1
John Cho ...Sale House Man 1
Fort Atkinson ...Sale House Man 2
Sue Casey ...Sale House Woman 2

Plot:
Lester Burnham, a depressed suburban father in a mid-life crisis, decides to turn his hectic life around after developing an infatuation for his daughter's attractive friend.

Specifications:
General
Format                           : Matroska
Format version                   : Version 2
Overall bit rate                 : 12.4 Mbps

Video
Format                           : AVC
Format/Info                      : Advanced Video Codec
Format profile                   : High@L4.1
Format settings, CABAC           : Yes
Format settings, ReFrames        : 5 frames
Muxing mode                      : Header stripping
Codec ID                         : V_MPEG4/ISO/AVC
Bit rate                         : 10.7 Mbps
Width                            : 1 920 pixels
Height                           : 816 pixels
Display aspect ratio             : 2.35:1
Frame rate                       : 23.976 fps

Audio 1
Format                           : DTS
Format/Info                      : Digital Theater Systems
Muxing mode                      : Header stripping
Codec ID                         : A_DTS
Bit rate mode                    : Constant
Bit rate                         : 1 510 Kbps
Channel(s)                       : 6 channels
Channel positions                : Front: L C R, Side: L R, LFE
Sampling rate                    : 48.0 KHz
Bit depth                        : 24 bits
Compression mode                 : Lossy
Stream size                      : 1.28 GiB (12%)
Title                            : English
Language                         : English

Audio 2
Format                           : AC-3
Format/Info                      : Audio Coding 3
Mode extension                   : CM (complete main)
Muxing mode                      : Header stripping
Codec ID                         : A_AC3
Bit rate mode                    : Constant
Bit rate                         : 192 Kbps
Channel(s)                       : 2 channels
Channel positions                : Front: L R
Sampling rate                    : 48.0 KHz
Bit depth                        : 16 bits
Compression mode                 : Lossy
Stream size                      : 167 MiB (2%)
Title                            : Polish
Language                         : Polish

Text 1
Format                           : UTF-8
Codec ID                         : S_TEXT/UTF8
Codec ID/Info                    : UTF-8 Plain Text
Title                            : English
Language                         : English

Text 2
Format                           : UTF-8
Codec ID                         : S_TEXT/UTF8
Codec ID/Info                    : UTF-8 Plain Text
Title                            : Polish
Language                         : Polish
